<mxfile host="Electron" modified="2023-04-21T15:35:17.236Z" agent="Mozilla/5.0 (Macintosh; Intel Mac OS X 10_15_7) AppleWebKit/537.36 (KHTML, like Gecko) draw.io/21.2.1 Chrome/112.0.5615.87 Electron/24.1.2 Safari/537.36" etag="LVZOAGUTFq4WGrEyqBNz" version="21.2.1" type="device">
  <diagram id="3qA-31ouczaMeBjV4bHU" name="Page-1">
    <mxGraphModel dx="2488" dy="1082" grid="1" gridSize="10" guides="1" tooltips="1" connect="1" arrows="1" fold="1" page="1" pageScale="1" pageWidth="827" pageHeight="1169" math="0" shadow="0">
      <root>
        <mxCell id="0" />
        <mxCell id="1" parent="0" />
        <mxCell id="8rc7R4QRWifs6PKGz34--6" value="Resource Server" style="rounded=0;whiteSpace=wrap;html=1;strokeColor=#1573B5;dashed=1;fontColor=#000000;verticalAlign=top;fontFamily=Arial;" parent="1" vertex="1">
          <mxGeometry x="570" y="309.72" width="130" height="140.28" as="geometry" />
        </mxCell>
        <mxCell id="8rc7R4QRWifs6PKGz34--11" value="Certificate / public key&lt;br&gt;&amp;nbsp;distribution" style="edgeStyle=orthogonalEdgeStyle;rounded=0;orthogonalLoop=1;jettySize=auto;html=1;fontFamily=Arial;fontColor=#000000;strokeColor=#1573B5;" parent="1" source="8rc7R4QRWifs6PKGz34--1" target="8rc7R4QRWifs6PKGz34--6" edge="1">
          <mxGeometry relative="1" as="geometry" />
        </mxCell>
        <mxCell id="8rc7R4QRWifs6PKGz34--1" value="Authorization Server" style="rounded=0;whiteSpace=wrap;html=1;strokeColor=#1573B5;dashed=1;fontColor=#000000;verticalAlign=top;fontFamily=Arial;" parent="1" vertex="1">
          <mxGeometry x="240" y="110" width="210" height="110" as="geometry" />
        </mxCell>
        <mxCell id="8rc7R4QRWifs6PKGz34--7" value="Signing Backend" style="rounded=0;whiteSpace=wrap;html=1;strokeColor=#1573B5;dashed=1;fontColor=#000000;verticalAlign=top;fontFamily=Arial;" parent="1" vertex="1">
          <mxGeometry x="270" y="310" width="100" height="140" as="geometry" />
        </mxCell>
        <mxCell id="8rc7R4QRWifs6PKGz34--9" value="Users and Applications" style="rounded=0;whiteSpace=wrap;html=1;strokeColor=#1573B5;dashed=1;fontColor=#000000;verticalAlign=top;fontFamily=Arial;" parent="1" vertex="1">
          <mxGeometry x="-20" y="309.72" width="100" height="140.28" as="geometry" />
        </mxCell>
        <mxCell id="8rc7R4QRWifs6PKGz34--13" value="1" style="ellipse;whiteSpace=wrap;html=1;fontFamily=Arial;fontColor=#000000;strokeColor=#1573B5;" parent="1" vertex="1">
          <mxGeometry x="623.5" y="132" width="20" height="20" as="geometry" />
        </mxCell>
        <mxCell id="8rc7R4QRWifs6PKGz34--14" value="Consume service" style="edgeStyle=orthogonalEdgeStyle;rounded=0;orthogonalLoop=1;jettySize=auto;html=1;fontFamily=Arial;fontColor=#000000;strokeColor=#1573B5;exitX=1;exitY=0.25;exitDx=0;exitDy=0;entryX=0;entryY=0.25;entryDx=0;entryDy=0;" parent="1" source="8rc7R4QRWifs6PKGz34--9" target="8rc7R4QRWifs6PKGz34--7" edge="1">
          <mxGeometry relative="1" as="geometry">
            <mxPoint x="460" y="175" as="sourcePoint" />
            <mxPoint x="270" y="337" as="targetPoint" />
          </mxGeometry>
        </mxCell>
        <mxCell id="8rc7R4QRWifs6PKGz34--15" value="2" style="ellipse;whiteSpace=wrap;html=1;fontFamily=Arial;fontColor=#000000;strokeColor=#1573B5;" parent="1" vertex="1">
          <mxGeometry x="100" y="320" width="20" height="20" as="geometry" />
        </mxCell>
        <mxCell id="8rc7R4QRWifs6PKGz34--16" value="Authentication&lt;br&gt;request" style="edgeStyle=orthogonalEdgeStyle;rounded=0;orthogonalLoop=1;jettySize=auto;html=1;fontFamily=Arial;fontColor=#000000;strokeColor=#1573B5;exitX=0.75;exitY=0;exitDx=0;exitDy=0;entryX=0.5;entryY=1;entryDx=0;entryDy=0;" parent="1" edge="1">
          <mxGeometry relative="1" as="geometry">
            <mxPoint x="362" y="309.72" as="sourcePoint" />
            <mxPoint x="362" y="220" as="targetPoint" />
          </mxGeometry>
        </mxCell>
        <mxCell id="8rc7R4QRWifs6PKGz34--18" value="Authentication&lt;br&gt;context" style="edgeStyle=orthogonalEdgeStyle;rounded=0;orthogonalLoop=1;jettySize=auto;html=1;fontFamily=Arial;fontColor=#000000;strokeColor=#1573B5;entryX=0;entryY=0;entryDx=0;entryDy=0;exitX=0.138;exitY=1.009;exitDx=0;exitDy=0;exitPerimeter=0;" parent="1" source="8rc7R4QRWifs6PKGz34--1" target="8rc7R4QRWifs6PKGz34--7" edge="1">
          <mxGeometry relative="1" as="geometry">
            <mxPoint x="355" y="319.72" as="sourcePoint" />
            <mxPoint x="355" y="230" as="targetPoint" />
          </mxGeometry>
        </mxCell>
        <mxCell id="8rc7R4QRWifs6PKGz34--20" value="3&lt;span style=&quot;font-size: 0px;&quot;&gt;%3CmxGraphModel%3E%3Croot%3E%3CmxCell%20id%3D%220%22%2F%3E%3CmxCell%20id%3D%221%22%20parent%3D%220%22%2F%3E%3CmxCell%20id%3D%222%22%20value%3D%222%22%20style%3D%22ellipse%3BwhiteSpace%3Dwrap%3Bhtml%3D1%3BfontFamily%3DArial%3BfontColor%3D%232B2A29%3BstrokeColor%3D%2300A0E3%3B%22%20vertex%3D%221%22%20parent%3D%221%22%3E%3CmxGeometry%20x%3D%22170%22%20y%3D%22302.72%22%20width%3D%2220%22%20height%3D%2220%22%20as%3D%22geometry%22%2F%3E%3C%2FmxCell%3E%3C%2Froot%3E%3C%2FmxGraphModel%3E&lt;/span&gt;" style="ellipse;whiteSpace=wrap;html=1;fontFamily=Arial;fontColor=#000000;strokeColor=#1573B5;" parent="1" vertex="1">
          <mxGeometry x="370" y="282.72" width="20" height="20" as="geometry" />
        </mxCell>
        <mxCell id="8rc7R4QRWifs6PKGz34--21" value="4" style="ellipse;whiteSpace=wrap;html=1;fontFamily=Arial;fontColor=#000000;strokeColor=#1573B5;" parent="1" vertex="1">
          <mxGeometry x="280" y="230.00000000000003" width="20" height="20" as="geometry" />
        </mxCell>
        <mxCell id="8rc7R4QRWifs6PKGz34--22" value="Authentication&lt;br&gt;context" style="edgeStyle=orthogonalEdgeStyle;rounded=0;orthogonalLoop=1;jettySize=auto;html=1;fontFamily=Arial;fontColor=#000000;strokeColor=#1573B5;entryX=1;entryY=0.5;entryDx=0;entryDy=0;exitX=0;exitY=0.5;exitDx=0;exitDy=0;" parent="1" source="8rc7R4QRWifs6PKGz34--7" target="8rc7R4QRWifs6PKGz34--9" edge="1">
          <mxGeometry relative="1" as="geometry">
            <mxPoint x="278.98" y="230.99" as="sourcePoint" />
            <mxPoint x="280" y="319.72" as="targetPoint" />
          </mxGeometry>
        </mxCell>
        <mxCell id="8rc7R4QRWifs6PKGz34--23" value="Authentication&lt;br&gt;2FA / MFA" style="edgeStyle=orthogonalEdgeStyle;rounded=0;orthogonalLoop=1;jettySize=auto;html=1;fontFamily=Arial;fontColor=#000000;strokeColor=#1573B5;exitX=0;exitY=0;exitDx=0;exitDy=0;entryX=0;entryY=0.25;entryDx=0;entryDy=0;" parent="1" source="8rc7R4QRWifs6PKGz34--9" target="8rc7R4QRWifs6PKGz34--1" edge="1">
          <mxGeometry relative="1" as="geometry">
            <mxPoint x="460" y="175" as="sourcePoint" />
            <mxPoint x="643.5" y="319.72" as="targetPoint" />
          </mxGeometry>
        </mxCell>
        <mxCell id="8rc7R4QRWifs6PKGz34--24" value="Signed&lt;br&gt;SAML Response" style="edgeStyle=orthogonalEdgeStyle;rounded=0;orthogonalLoop=1;jettySize=auto;html=1;fontFamily=Arial;fontColor=#000000;strokeColor=#1573B5;exitX=0;exitY=0.5;exitDx=0;exitDy=0;entryX=0.75;entryY=0;entryDx=0;entryDy=0;" parent="1" source="8rc7R4QRWifs6PKGz34--1" target="8rc7R4QRWifs6PKGz34--9" edge="1">
          <mxGeometry relative="1" as="geometry">
            <mxPoint x="60" y="319.72" as="sourcePoint" />
            <mxPoint y="250" as="targetPoint" />
          </mxGeometry>
        </mxCell>
        <mxCell id="8rc7R4QRWifs6PKGz34--25" value="Signed SAML Response" style="edgeStyle=orthogonalEdgeStyle;rounded=0;orthogonalLoop=1;jettySize=auto;html=1;fontFamily=Arial;fontColor=#000000;strokeColor=#1573B5;exitX=1;exitY=0.75;exitDx=0;exitDy=0;entryX=0;entryY=0.75;entryDx=0;entryDy=0;" parent="1" source="8rc7R4QRWifs6PKGz34--9" target="8rc7R4QRWifs6PKGz34--7" edge="1">
          <mxGeometry relative="1" as="geometry">
            <mxPoint x="160" y="347.22" as="sourcePoint" />
            <mxPoint x="280" y="347" as="targetPoint" />
          </mxGeometry>
        </mxCell>
        <mxCell id="8rc7R4QRWifs6PKGz34--26" value="Request with signed&lt;br&gt;SAML Response" style="edgeStyle=orthogonalEdgeStyle;rounded=0;orthogonalLoop=1;jettySize=auto;html=1;fontFamily=Arial;fontColor=#000000;strokeColor=#1573B5;exitX=1.017;exitY=0.339;exitDx=0;exitDy=0;entryX=0;entryY=0.339;entryDx=0;entryDy=0;entryPerimeter=0;exitPerimeter=0;" parent="1" source="8rc7R4QRWifs6PKGz34--7" target="8rc7R4QRWifs6PKGz34--6" edge="1">
          <mxGeometry relative="1" as="geometry">
            <mxPoint x="160" y="402.22" as="sourcePoint" />
            <mxPoint x="280" y="402.22" as="targetPoint" />
          </mxGeometry>
        </mxCell>
        <mxCell id="8rc7R4QRWifs6PKGz34--27" value="Response" style="edgeStyle=orthogonalEdgeStyle;rounded=0;orthogonalLoop=1;jettySize=auto;html=1;fontFamily=Arial;fontColor=#000000;strokeColor=#1573B5;exitX=0;exitY=0.75;exitDx=0;exitDy=0;entryX=1;entryY=0.75;entryDx=0;entryDy=0;" parent="1" source="8rc7R4QRWifs6PKGz34--6" target="8rc7R4QRWifs6PKGz34--7" edge="1">
          <mxGeometry relative="1" as="geometry">
            <mxPoint x="170" y="412.22" as="sourcePoint" />
            <mxPoint x="290" y="412.22" as="targetPoint" />
          </mxGeometry>
        </mxCell>
        <mxCell id="8rc7R4QRWifs6PKGz34--28" value="Response" style="edgeStyle=orthogonalEdgeStyle;rounded=0;orthogonalLoop=1;jettySize=auto;html=1;fontFamily=Arial;fontColor=#000000;strokeColor=#1573B5;entryX=1.02;entryY=0.931;entryDx=0;entryDy=0;entryPerimeter=0;exitX=-0.023;exitY=0.931;exitDx=0;exitDy=0;exitPerimeter=0;labelBackgroundColor=default;" parent="1" source="8rc7R4QRWifs6PKGz34--7" target="8rc7R4QRWifs6PKGz34--9" edge="1">
          <mxGeometry x="-0.003" relative="1" as="geometry">
            <mxPoint x="266" y="460" as="sourcePoint" />
            <mxPoint x="80" y="460" as="targetPoint" />
            <mxPoint as="offset" />
          </mxGeometry>
        </mxCell>
        <mxCell id="8rc7R4QRWifs6PKGz34--29" value="5" style="ellipse;whiteSpace=wrap;html=1;fontFamily=Arial;fontColor=#000000;strokeColor=#1573B5;" parent="1" vertex="1">
          <mxGeometry x="230" y="354.72" width="20" height="20" as="geometry" />
        </mxCell>
        <mxCell id="8rc7R4QRWifs6PKGz34--30" value="6" style="ellipse;whiteSpace=wrap;html=1;fontFamily=Arial;fontColor=#000000;strokeColor=#1573B5;" parent="1" vertex="1">
          <mxGeometry x="-10" y="280" width="20" height="20" as="geometry" />
        </mxCell>
        <mxCell id="8rc7R4QRWifs6PKGz34--31" value="7" style="ellipse;whiteSpace=wrap;html=1;fontFamily=Arial;fontColor=#000000;strokeColor=#1573B5;" parent="1" vertex="1">
          <mxGeometry x="200" y="169.5" width="20" height="20" as="geometry" />
        </mxCell>
        <mxCell id="8rc7R4QRWifs6PKGz34--32" value="8" style="ellipse;whiteSpace=wrap;html=1;fontFamily=Arial;fontColor=#000000;strokeColor=#1573B5;" parent="1" vertex="1">
          <mxGeometry x="94" y="389.72" width="20" height="20" as="geometry" />
        </mxCell>
        <mxCell id="8rc7R4QRWifs6PKGz34--33" value="9" style="ellipse;whiteSpace=wrap;html=1;fontFamily=Arial;fontColor=#000000;strokeColor=#1573B5;" parent="1" vertex="1">
          <mxGeometry x="381.74" y="330" width="20" height="20" as="geometry" />
        </mxCell>
        <mxCell id="8rc7R4QRWifs6PKGz34--36" value="10" style="ellipse;whiteSpace=wrap;html=1;fontFamily=Arial;fontColor=#000000;strokeColor=#1573B5;" parent="1" vertex="1">
          <mxGeometry x="537" y="386.72" width="20" height="20" as="geometry" />
        </mxCell>
        <mxCell id="8rc7R4QRWifs6PKGz34--37" value="11" style="ellipse;whiteSpace=wrap;html=1;fontFamily=Arial;fontColor=#000000;strokeColor=#1573B5;" parent="1" vertex="1">
          <mxGeometry x="230" y="447" width="20" height="20" as="geometry" />
        </mxCell>
        <mxCell id="oVOntPXR7E7VkJtqesnf-1" value="" style="shape=image;verticalLabelPosition=bottom;labelBackgroundColor=default;verticalAlign=top;aspect=fixed;imageAspect=0;image=data:image/png,iVBORw0KGgoAAAANSUhEUgAAAKoAAACqCAYAAAA9dtSCAAAAAXNSR0IArs4c6QAAAIRlWElmTU0AKgAAAAgABQESAAMAAAABAAEAAAEaAAUAAAABAAAASgEbAAUAAAABAAAAUgEoAAMAAAABAAIAAIdpAAQAAAABAAAAWgAAAAAAAACQAAAAAQAAAJAAAAABAAOgAQADAAAAAQABAACgAgAEAAAAAQAAAKqgAwAEAAAAAQAAAKoAAAAAzUg/5AAAAAlwSFlzAAAWJQAAFiUBSVIk8AAAGQVJREFUeAHtXQl4FdXZfiFk3xeyk4WQEPawySI7KLgURNAq2r/W/VH+Piq1rVQf2/q79Vdrra3V/goi2iqWFiRsKoIYlkAgkECAhARuAiF7yL6S/5xZbu4NN8tNztyZuXPO88ydmfOd851vee/MmZlzvjMoZE1qB9CBQYNAEjmkaRA5p8fmvN7opCipY11f5CPn2aQLbYhtinTaOG2Xti8fi3v76FR0SR5JB2Eny0hO+kYnbUt1OuuLeWL9buikbbO8VrpIulroba2rJV3U25ou5ln5xoq/DToV0UJvat9OXaT2+kSnjESbdtaX2hPyxWOzvBZ5ZlsIeku2t6JLdXugD6ZFeOIW0LoFOFC17iEun2ABDlQOBF1YgANVF27iQnKgcgzowgIcqLpwExeSA5VjQBcW4EDVhZu4kByoHAO6sAAHqi7cxIXkQOUY0IUFOFB14SYuJAcqx4AuLMCBqgs3cSE5UDkGdGEBDlRduIkLyYHKMaALC3Cg6sJNXMghLE0wc3gomtva0dJONrJvbG1DRUMTGlraWDbDeTnYAoMHDUaYVxCifIci2mcooryHItDTDwFuPghw94W/uw88h3jAdfAQ8zZksAtm/es+ZpIyBeqmB+faFKyptZ0AthnldY0wVdXhQmWtsBVU1iCnpBL1HMg27aZWZmJgNEYFxyE5KIZscUgMiBYAqJY8tF2mQO1OEQ9XF0T5ewnbhKhgq2LXOjpQUFGDk8UVyLxUjgMFxThXXmVVhp8oa4Fw7yBMjxiNqRHJmBKWTK6SPso22A/uDgFqT3INJtNfE0L8hW35uOFC0VJy5f0h/zL2ni/Ct7mF5Irb0hMLTuuHBUK9ArAodhLZJmNsSHw/ODi2iupAtaVuqI8n7hyfIGxNpK/7XV4htp3OJ6A1kT4w7+/asllf8mhfc070WKwcOQc3RIwk06aFic99qap6GU0C1dIqHkNccEtynLBVNTbji8yz+PT4aRRV11oW48c9WMDb1QN3Jc/GyqTZCPMO7KGkdkmaB6ql6QI93fHYjPF4ZPo47Mkz4Z39GcguKbcswo8tLEABeu/oeVhFNj83LwuK/g51BVTZvLRfuygxVtgoYN/efxSnSkplsuH39NXQ3aNm4+EJi3UPUNmZugSqLDzdLxgRI2xbTuXi9b2HUFJbZ0k23PGMqGT84obliPMPcyrddQ9U2RvLxiTipqQ4vHfgGP5+JBNt5KODkVKghw9+PWMFFsWlOKXaTvUJ1cvVFWvmTsNXD9yF8RGhTukwW0rdHJ+CL5f/2mlBSnV2KqDKTkwMCcKmn6zAs3NnwM3FRc52ur2XqztemXs/Xp33Xwjw8HY6/SwVckqgUgVdyAPXY9MnYdP9KzAswM9SZ6c4TgyKwMalT2HJ8ElOoU9vSjgtUGXFx4QNxdaf3oPFSQlylu73SxImYsOPfk4emIzTvXF6oFJU+rq74d07bsFTs6brHqSPpCzCy/NWwd3FVfe62KOA0zz190XpJ2dMRWyAP36182u0tuvrUyz9/PninJVYmjilL6o6XRlDXFEtvXb7qCR8fNdyeLu5WWZr+pi+wH99wX2GBSl1juGASpWeEh2J9QSsfu7u9FTTyZWA9H8X3o9F8eM0LafSwhkSqNSoEyLCsf7uFfD30DZYX51/L+bFjlYaB5rnb1igUs+MDQvF+3csg8cQbXbV1964zPBXUvkfZGigUiNMiorEH2+/VXjvKhtFC/uHU+bj7tEztCCKJmQwPFCpFxYmJOD5BfM14RAqxOyYZDw59SbNyKMFQThQJS+sSpmAO8eMUd0nw/yC8MqCH+tq9L0jjMaBamHl3y5ciDFh6g2Pc3MZgrduvh++bh4WUvFDagEOVAscuJOHqj/d/iPQUVhqpCemLEJSULgaTWu+TQ7ULi4a5u+P5+bO65Kr/OnE8Fj8dPxs5RvSaQscqDYcd/e48ZgbP9wGRZksd3LLf2n+StApNjzZtgAHqm274HeLbnJYF+DBiXNAH6J46t4CHKjd2CbcxxerZ8zshsouO8Y/GA+mzGHHUAVO7R3tqGmpR3ljFS7Xl6K4vgzlTWyj3TD9JPPx4fPk9gXQED7uZD5+gJcrwn09Ee7nBT8PdR5QBuK3n06cjM2nspBXqdyU7KenLSazEJi6YSAq91i3sa0ZJ8tzca7qIvKuFsJUW4wyAs6q5mqpXgcwqEMMa0H2LBNTC6396pgom5WwosChvu4YFRaA8ZFBmJUQhqnDhsKNgFnLyWXwYPxi9jw8vuVLRcRMCY/Bwnhtf8evbq7D1xcP47siEkOhIg+t11q7AJEA0wFda6ZA7cmbZXVNKKsrxvfni/HuD9nwJFfdm0dGY0VKPOYkRGruE6asyzzyUDVtWAzSC01yFrP909MXM+PFmlFudSE+PrUde4uOob1DGrvL+Cppj8wOA2pXoWgoyq3ZF7D1VAFiA33x5OwxWEHiTbm6aK/b/PTMObj3841dVRjQ+Q1RwzGRXFG1lkoaKvF2xhfCFRQQ74aOuGL2ZgdNoOJiVS1+9dVB3PTeVhLFr7g3mR1OT4mIxIyYWKbtPjZ5HlN+LJh9cfY7/Hjbi/iuUOrCsWDKiIcmgCrrQgP73rdxN365LQ00ip+W0hPT2L0BGBcWjamR8ZpRr6G1Cc/tfx9vZvwT9IFJi0lTQJUN9PnxXCz/KBWXr9bLWarvp0QNI+NX2XzevG+cdiYZVjXV4vGv38Qek/auopZO1yRQqYA0ZPpdH29HoYbCS/4kZeAT60K8fHBzgvqjtKiNK5tq8MjuN3C2qpCeajppFqjUapeu1uHuDTtAuwRaSLcmjUKQ58DCNy4bORF0sp7aqa61Eau/eQemGn1EQdQ0UKkzi2vqsWrjDpTXN6rtWwKwwVg6amBXw2XJ6gcxu9ZxDWv3f4i86kuq27SvAmgeqFQRCtYnN+9B+7VrfdVLsXJ3ju7/bNDx5CEqPiBEMdn6yvhvmdtw6PLpvhbXRDldAJVaKt10BS9/m6660RKDh2JkSP9C6Wihb3r0yjmsz96luh3tFUA3QKWKrUs/RUKiq9/xXzxipL12Fsovih/Vr3qsKjW1teClg2w/XLCSrTc+ugIqVea3uw6Qd6zqhuO5eURyb3a9jp4UHIYoP3UXevgwaycu11VcJ5seMnQHVPq66i9pmaraNiEoGNF+AXbJcGPMCLvKsy5cXF+Jz3L2sGbrMH66Ayq1zPuHTpClKtV9ZXVjrH1flmZED3eYU2019EFmKlmjVt07kS25+pqnS6C2tl/D3w6e6KuOipS7MabvwKOvtSZFqDcAhd7ud+QfUcQOjmKqS6BS42zOykVpXYOj7HRdO5Mio6/L6y4jOSScDCRXb+D4p6fJqz3y7lTPSbdApUutr0vPUs329AtVbEDf5jnR96dqpQYyyCT1vPqv9Qaqv2rjUQcqOK3/ybHTyK0Q5+YMMg/qlcZQCg2QY2H0uZhHp0kIieQNEsZaSuckUygm0OU6YlFxTGaX6RVS/drmJrlQj/v0SwVYvf0zUkZsr7MtkiXLJHCQ6RYyELpQXqor8zDrZaZTXpQJLS/yoWd0hH49GR2l96RroDa0tApLTQrOMTtcdLIZiGbnEVcJZeyhd9bpCi4zGEQU9YiDvMoyMu+KfFOXZBTqyvKSvciCyiUCTKRTlmJeJ13Ms4tOqmhh4DOVfCBJt7f+gSjN6+rPAhyo+vOZISVW/dZPlzmnEUKs+phWt0PqF3J7lG+V3d0OzXRSXLhX0tsovXVK9elOKCPmibfu3uiddQQ2chtkL9bvhm4pr1CWNk6SVN/ctpTXeWunMlORO+WidTrplCq1LenVK53yE9rt5GmlS490UR7gGpraW2jjqiWHAnVsRCAWJw/DDbFDMSLEDyE+HjyMjWqut6/hDvIHoUEmCmuvIKs8D2nFmThWesY+JgMoPShkTSr529ArFuUi/YOEf3HnP7B3usW/lrKRrwLSP3nuiHA8u3AcUqKCKZUnJ7FAUV0J1p/eih0X90saUcxIdwDB9zSbYkvCFcUXwZl4x+jM68Re93RFgerpNhivLZ2CFRPiJEX4zhktcLwsBy8e+isqmkjEFIWAqtjDlL+nG/710AIOUmdEZhedJg4dhf9b9DsM8wnvQmF3qghQaRCJ9ffPEsL3sBOVc9KyBUI9g/D23F8hwN1PETEVAeovF47F1Bj1p1woYjHOtFsLhHuF4DdTHu2WPhACc6AmhPjisRv7NwJ+IIrwutqwwMyIFMyOnMxcGOZA/fncUXChsSd5MqwFfjZ6OXPdmQLV190VS8cNYy4kZ6gvCyQFxIFuLBNToM4ZEUZinjJlyVJXzsuBFpjF+PbPFFVTY/kDlAOxoOmmxgUnMpWPKVDpgxRP3ALUArG+kUwNwRSoIT7uTIXjzPRrgQA3tu9TmQJ1CH/a1y+yGEvOOhAcU6DWNet3Oi5jPxmeXUMb2+kvTIFaVK3erFDDI0NjBrjSwHbJI6ZAzS5muwiWxmzPxbHDAueqL9hRuveiTIH6fV5J7y3yEoawwJEStlPZmQI158pVnCtVN9SOIVCgcSUbSf80rZjtmgBMgUrt9/cD5zRuRi6e0hbYVrAPmn6Yogb44tgFnC29qrQtOH+NWqCWzKvacGYLc+mYX1HbrnXg6c1H0NKm71hHzC1tEIZvHF9PFvFl3/1jDlTqjxOXKvHMv9NxrUOewGUQLxlczfU5W/BN4UFFrKDYdOn/nDQJEeTeWj5NWKBXEek5U01YgF6QPsj+Ep+c2SrMMlVCKMWASoX9KrsQZ0qq8frSqcJcfiUU4DzVtYCpthh/yFgPOhNVyaTodGk6dVaOFTAvMRz3T0nA/MRIEitU/QXBlDSqs/Om61Rllp3F1vx95FZ/mMzWl9etpfPylZnXr+gV1dJh+/KKsS/vsjCwekJUkBApZSiJlOLlNkSKlmLRnzUHLJA5yAEy6LlFOSmgAc01h9ihJ+ZEDSeeiDuprnBizUfIui6f1JVkub6+3IjIR6xvzVMoQQhWdYVMi3JWulrysuYv8xICOsgkC/0t7dIZEkguKLUnCCIBSSbRfRcZRHkpQazXQejNZEWV6pZamEiklJyKfDS0ywvUWfqG1lEmOQyosvj0bcARUxmOkk0whAwEs7GIccix2bmyce2iU3BQI1NetGWJn8BDzOsbnVSV6ghsZBnI3vzHsEWn7VmVFWWQASECicpHksCLHlC5xDyR3pl3nS0s9LKuL9axqk+yuo89JbUn6WDTVub69ICWl21JDh2YFHnqd6D8vCmDWIAD1SCO1ruaHKh696BB5Hd4H5WlXR+YOhaJQwMFluY+o1UDtN9nmSH2yWieud9nSaZ9P5rMdHoi5Qn5Fsck/3/27kZbh/zESwvYTjT+69rZt9qOdyD1S8WaIn9BNlFAkm3ZJi3VtY9oQRfqWJyLTIXv7n86ulk60+dOt0CN8PPG2oXThaXJ1TD9hepKtNHVrs2A6l4K+kJ8Qvgw0GV81EonSvKwt+ikWs0PuF3d3vofmz5BNZBSqx8vLrLL+MeLTXaVZ1340ZTbWLN0KD9dAjU20A+rJqm7UnPGJfuASpfwUTMlBkbhjhEz1RRhQG3rEqjPLZim6tWUWjzNlG+X4Q8V5ZOuQu/9WbuY2ln4vyfdgRBPfztraaO47oC6KCkWi0fGqWq985XlKKmrtUuGupZmHL9SaFcd1oX93L3wmxmrWLN1CD9dATXA0x0vLVH/9rX3wvl+Oee7AsctztCdgLOixmKpDrsAugLqa7fNRrivd3c+cFj+7tz+AW7X+VPk5dL1r48cJrjU0DNTViAhINLRzQ6oPd0A9ckbJ5BbfuyAlGVRubi2BidLivvFqrS+hrwtMPWrLstKXq4e+OP8JxDsyTbsDksZu/LSBVBvHx2PNfOmdJVdlfPUs6cH1O5/zmQOqD6ryuHeQXhz3hOgoNVD0jxQZ8VH4s2lc/ryXt0h9t58emDz1XeezyarPTc7RNbeGhkdHIv3Fj0Ff3f1u1O9yappoC5JjsW6e27SzEDrY5eLUFBV2ZtNe6Q3trZge652vhCNImD94KZnEeYlforuUXgViZoF6n2TR+IvK+eDLgWklfTZyeNMRPn05CFNPFTJysT5h2PDrc9jZuRYOUtze+2gQDKNt5sr3lk+Fy/fOgMu4tqDmjBaSV0ddvbzab+rAvlVZfjBlNs1W9XzAHcfvDVvNVanrIDrYO0NAdEUUKfHhiH10duxbGy8qk6z1fjGzAy000EojNJHx+X1QxkxZMCGrPGNn4xejH/e/jvMiprAgCM7Fpr464T7euH5xZOxdEwcO80Ycrra1IR/MLrty2JlFF9A+qV83BA1XM7SzD7KZyjemLMah6+cwsentpMZpv17b8xSIVWBGh/siwenJ+PulAQy919VUXq06UfH0lHf0tKnIX09MupC/MuRPZoEqizmtPAxoNu5KhM+P/c1vr90HHWt9TLZoXuHoyOALOY7PymCXD1jsTApWlp+3aE629VYRUMDNmayjUwnC3D8ykXsuZCDBXHqjgST5elunxQYgxemPSQEFDlRdg5pl0/gdOV55NdcQm1LXXfVmOYrClQ6FXp4sA+SQv0xMtRPCEIxKTrE9kh3pmqxY/bnQ2nC1bQP46P71ehbh3ZiTkwSGQ2m/VgHLoMGY1JosrDJytKlz4vqSsi74UZha2gTp1G7ugzBK0ffl4sNeM8UqGlP34Ih5HWSr/sQeJNV/PS++EReRTk2ZZ0YsJF7YmC6WoGNWQfwwITZPRXTLC3YIwB0s5VYApXpU38cuXpGB3jBn9ze9Q5Savjf7/mW3O6UH0Ty3tE9KK6ttuVrnidZgClQncmq/z6VjfQix4wfbWprxcs/kABjPHVrAQ5UG6YpJw9Qr3+/zwZFuaz9prPYfOaIcg3onDMHqg0Hrt29E9VNcmwlGwUUyvrDgVSYaioU4q5vthyoXfz32YlM7CtQZyJeIwlE9tyez9Gq8tyqLibRxCkHqoUbzpaV4fV9jr3lWzQvHGaXFuH1tK+6Zhv+nANVggD9TPrE1q1oalN/mcwvcw7jX2fSDQ9OSwNwoBJr0FdQT21LRdHVq5a2UfX4tbStOHK5f5MIVRVcocY5UIlhX/zmWxy4aFLIxP1jS/upT+3egJzyS/1j4GS1DA/UP/5wAF+cHNj0EqUwQaesPLnrI5iusl0AVyl5leRraKCuO3oM7x3Wdl+wsrEOD6e+j4LqUiVxoHnehgXqB+lH8ere7zXvICpgWUMNHtr2HnIr+zdNWxdK9iKkIYH6p7RDeOP7tF5Moy1yVVM9Ht7+N2RcsS/mlba06L80hgIqnUry/K49ePegtm/33bmzprkRj+/4AFvPGe9Tq2GAWtPcjJ9t2oLPT2Z3hwNd5NOIgL/d/znePrKN6RwurStvCKDmlJZjxYZNOGgq0ro/+izfhqy9eGTHX1FSb4zhgU4P1H9knsLKjZtwocr5HJpZUoB7tryJvSZtvl7r87+uDwWdFqgVDY1Y/Z+deGH3XrLqnLoBdPvgh34XudpcjzXfrsPavRtQTY6dNTGdiqIVI209nYvff7Mf1Y1kqJ5Sk520oqwkx66C40i/kotnpi7DLQmTidrOpbhTAbWgshovfZNGhumZiJuUn0KiMayiqqkOL+zfiE1n9mPNtDsxNkT9MJ2sbOQUQK1tbsGf0zLw8dEsMU6+c11M7PZ1VtkFPJD6FpYMn4xHxi9BrH+o3Ty0VkHXQK0jAN2QcQofpp9UZUS+1pzZVZ6d+UdBtyXDJ+GhcUsQH6DeOlddZbP3XJdArWpowifHTmNdehaukvejwmp2Br+K9uT4XQUZ2FVwFNMik7Fy5GzMiR5Hlp7X13O0roCaUVSCjRk52H4mH63t9Eme9EM5QHvCqBXtcPEZHC7OIbFQA3BbwjQsip2ExMBoqzJaPdE8UHPLq5F6ugCpOfnII8ciOKX1QLVqVY3LVdpQjXXZO8m2AzF+oQJgZ0SOwZjgeM1GbNEcUBtb23CksBRp+ZfxXV4hzkngHGS1uK3GkaAj8Uw1pQJg12VvJ4Hq3DExNBFTwkZidHAckgKHwdvVUxPaqApUGoSkoLIGWcWVZCvHycsVOFZUKszCFO/o/NbuSJQ0tjXjwOUsHCQbhAtDB4b5hpHuQRSifUIR5TsUUd6hiPAOJnH/feHjQBAzBSoFXmv7NTST/qOwJ1+EqhpaUNnQTPbNqKhvQmF1PS5W1cJEtouVtWgkUUJo6rxicnA6Epy9tVVYW0KCoF0Ri0ngFS4i5JgGdvN38wFdEdCNRKmmgdFcSZ4QsXoQu6DHtHGmQI1+YZNZIVkZoU9JckUgEhDSRJTkV0zRFHr+pSO5aDS/yuYqSQ16kZF8K4CanXb6ekfBTm/OSWcW4EDVmcOMKi4HqlE9rzO9OVB15jCjisuBalTP60xvDlSdOcyo4nKgGtXzOtObA1VnDjOquByoRvW8zvTmQNWZw4wqLgeqUT2vM705UHXmMKOKy4FqVM/rTG8OVJ05zKjicqAa1fM605sDVWcOM6q4HKhG9bzO9OZA1ZnDjCru/wPYqKpgMkSs8QAAAABJRU5ErkJggg==;fontFamily=Arial;fontColor=#000000;" parent="1" vertex="1">
          <mxGeometry x="590" y="344" width="90" height="90" as="geometry" />
        </mxCell>
        <mxCell id="oVOntPXR7E7VkJtqesnf-3" value="" style="shape=image;verticalLabelPosition=bottom;labelBackgroundColor=default;verticalAlign=top;aspect=fixed;imageAspect=0;image=data:image/png,iVBORw0KGgoAAAANSUhEUgAAADoAAAA0CAYAAADbsStYAAAAAXNSR0IArs4c6QAAAIRlWElmTU0AKgAAAAgABQESAAMAAAABAAEAAAEaAAUAAAABAAAASgEbAAUAAAABAAAAUgEoAAMAAAABAAIAAIdpAAQAAAABAAAAWgAAAAAAAACQAAAAAQAAAJAAAAABAAOgAQADAAAAAQABAACgAgAEAAAAAQAAADqgAwAEAAAAAQAAADQAAAAADqP0AAAAAAlwSFlzAAAWJQAAFiUBSVIk8AAABURJREFUaAXtWl1MHFUUPufOLtsSiwSBqugbkQcTjWKIUUjAvhCpoSg1AW0TIy0WUxtTxTTGF30S0zRoArXW2sRKDWJoMZgmlbQp21oJxKRvJD7YKJoCRiwJge7OPZ57d+4sszvbPik7A5PAvednZr7vnvtz9t4BWCcXZvIs2f99UbRwuQuF3YJIDwHKYkQJXOc/CSzrMqVjWaT0rrzK1/UX5h7Kvn+1P/t5n+/j7/s+B5+QCwhymrGeSRRG+n569qubhp+H6Nbu77YRJk8jUBk64NIvDgBRbyDmUEDbeMvQmCIrDON7mKQkOgeEZUYX6BKBechzdcM7tikeOqKl3We3oBS/cFcrB6eLBj6ibo+kWYl2pY4oSauLSZcHOoK5wZdbiF2aKBK25PYLgYWgxYzRqhDQuR2FKkO0+HZeIbAVG6L5xYUgDpIeS66slPCa+AqDc9dDDZTgihTweJRWSng+3c1//9yJQORODv+/HW9EKLJ9qvOwAX+y+sTrvIjDSY2FaC5mRbbH2/r/drB9+eTXL3OmAacc2bfIu4gi0cWpzg8NSQ3axuhZFz3CpfhLLkmt3iRW0nbX0VvJO6K8jj/ohQhgQTKtI0zXHcdluSlLl/mMvCPKffSpR44f7DBAn/68ewvXPzYyd+GamlN7XjNy/eDOu3iMfmLkXGUqMzo4Sumk3EnS3cwinZC7SfqqxP6/Suo5xx7nBP06CnqG33u/iy+d1MdZ9yv/NbBvRdaPDhd/io+ZjG5xSxTkao210HME6hCxDoB/wfhftayuVVYdLX8fo71luu6M0YS0nNFECehCSAk6tPCCJooS+1mTs48EuxGIBMh+TXT+SNMkszwabEI50BMcvdg8MmnGKMzfvO8AIQzlcA+mmmBoabb8gAKfNWFt7R7eS0jvCSEfUFN6ELdSGPvvPBI/iL/wzTEToSyixnDvu4M1zLOKyRYDr0m8LQFCx9/mVIXrLIPgOl+WYwfLTu3NuP7Kru5lH74HgGW26cdoH/bXevUslQGl7PoeS6nSsnDepWw5nyVogYfg9I8vDkzol27822iBjRbYaIGNFlijFlg3y0sW0bAkDIj2++PPf/uZ6UBponsno2XFMwN8wNSqMqJQHEmAHFqaK22f6jyWcHPd0qI/e/nYpdW0QChKhNbC8tlexUVHtPTN0SfQkhMcSQzfIZMkC2WNjigJ2mdIhyKSHhJqIIp9miiHscFjC51ADWaMVoSOm5dQhSGaVzuACiP/3BonInXM8IcXsyuprZ/z3BsHuJx3tf6VArPd6W9eIy3vdOy51nHkuHq92sBexqURrtYrOXXxPpCkHVd3faH0UD3QVhq1rB94Zn3UccgqTESzDGul4HX8yrWOw5qkwnD51Z5FLt7IwDN8ddcJTVLpp9pPz3PjvJ3h4xHzjih/LPKbByELNkS8Oh8f3oHw+mQ8JO+I8tlIffWn79y9GqdFiebVMq/1jQ8P7vTMK2hbXh/PDSZhyLezF5BxBHu/nVy5Ht0cYQLUy6thkVoR3bMekKOWsN+yE3JOxKCdU9aP+Kwm5m7m8Z6U9ne+ssnLyYjztVpG+XMkFgOi1FdhGQFSIWpiSxMWqOSOG0DNwTrPy/LUCtN1F/zNodEuGKLToaHkT2RaE+UN62F/e0i0CMOaKH/J2ceUZkNCK5PGrE3Up4nO9zQv8ucs7Xw2nMz0Cric5Nms/XLzyKIZo/BXz3NjArGR16i5gJNLwSdgHqJxvOXMmFK4RJVwg8kml2KVXD3E87U6vwjWbIwa7wQn+ocSm2OV5ltdxW3dXP8ClmBbe1JRorcAAAAASUVORK5CYII=;fontFamily=Arial;fontColor=#000000;" parent="1" vertex="1">
          <mxGeometry x="291" y="363" width="58" height="52" as="geometry" />
        </mxCell>
        <mxCell id="oVOntPXR7E7VkJtqesnf-4" value="" style="shape=image;verticalLabelPosition=bottom;labelBackgroundColor=default;verticalAlign=top;aspect=fixed;imageAspect=0;image=data:image/png,iVBORw0KGgoAAAANSUhEUgAAADoAAAAuCAYAAAB5/AqlAAAAAXNSR0IArs4c6QAAAIRlWElmTU0AKgAAAAgABQESAAMAAAABAAEAAAEaAAUAAAABAAAASgEbAAUAAAABAAAAUgEoAAMAAAABAAIAAIdpAAQAAAABAAAAWgAAAAAAAACQAAAAAQAAAJAAAAABAAOgAQADAAAAAQABAACgAgAEAAAAAQAAADqgAwAEAAAAAQAAAC4AAAAAJPN7IwAAAAlwSFlzAAAWJQAAFiUBSVIk8AAACElJREFUaAXtWXtwFdUZP9/ZG/LACrVALEkaC9Y26lyk8hge6Yidaf+xgykQmFLHykAAQ6xYCdRAvS3KeElFQrQD1DCT1IpcKzSjduwMbelUmpEOZQgGp7aAT2aor2ohDdy75/R3Ntm9j5xd7p6LOtPpwmW/871/Z885+30LsTyuithT15BMNjEmvkFcVBHJASL7FUbymWRKbj8dW96fh5uCVKb8YsVNJMUyxkUt4pcTiQ8Yk4e5JZ/oWdi5+2LO6WIKFS2710su7uckIowEQwDvx7hU9NuS2ILX71vRczFfJvIbdzSUyeKiDk72oqF46fjpXA4hu3kvzfvlW34xuJ9A8ce3PBWXJDdiNiIBehWcid9ftenR6QE6RqKbYrEIQD5HTC4KdkDTLCFfrE0sGOun5wu0fF3iZslYs59hDr8Ek7Hn6m3binP4BQ0/+sL7a5mkOXk5kaxakLXDT9cXKOfsfj8jHZ8Igc7RHTqZCW9GYnUp7PKdaCcEHkzd7L0LJ+niaYFe+cPEWBjN1hkE8kjWBcpDCM+fFV9HDpeHMHFUhZS36my0QAWzrsFS1Mp0TjJ4X8mgCyKFICNfxKhGF1gLhiRTyyb0hckxstMFwlYw8yVFic6fFqgl7Dd1ynnwfI/3PGyzVPDaMvRFWjst0NOb6/+GqOHBEtuflW0BA0rS70zMAUibgxaoCiAlPRoyUNISke0hbXzVDy9vewPCbl8FjQDL/WT/e6Of14j8C4GS4rPbzidL1Yt6ss4wl4fq6CevrrvzZC7fHX/5kU2zUDZey4mNwbJ8l1HqeF/TxoOuXHePMOsewUQtZFfo5Dk8W0q58vDynckcvjPE+eF/VbYkKgSlfoPaMorkmE8JiJLM3nbqvsbv53pSBQQl+5sAbg1q5HG59vD7T9TPrQP2R+3/uKv9fK69Gt+w666ZlpXqJibGBJSAF1CdNRxcuLtT50PxAoEqhfJ7u0ZGyqy1CLQKiX5WAU7/5DHwNry2fsWwJXZ1PF5JEd4N3a8O6uOtmGXrThzqZS7+SpY9t3fZZu1BMv2JpsqUnXwAE7MIusVufPgTnOR+rMt1PfO7jqh8/a6LAvUMY3+IVNhvTLUsWSUte0Ay/spbG+74uyfPIK7bsuWKC7Y8hEQmIrGhiQkAqlYLFyeEdWFa39JH3s9wlUXO6ljymWQRn4rHUy6t1AecRY689J3Hz2Qp+QzyB+rjQMeeuHnLXsx0nfME8wQ6NCH7jja0flvns1Ce76lr6njiQ20zUZ0YlYJ45nU37LxnpmnsILuIn/DKlsQ0Yva3sC+ux28U9gXH8hpchkyk8LTeI86Ocko+d6rlzl7PD8nvebQBIRhX9n92TSd3NE2yLPsWSSLKufwcDq8IcRv7HXubYY9y8SFkLyPHZ3vqnzzk2uXehy3dcWt/9U0A2IxGO+osPecAcRrs4YfJYOONd6496/X1jU5yE+NbTyHoVerACLt0HX0mXjva8PAXVaLqxEUeB73DZyieN3ZyU5M/mB/4vYJEc8/8xG9zgWYt3XFr98WJ8ReAPpqrGDguYvisMXjBttKlze7k2XObe37z8YWlHwWgF2Y/Mz+eq+8BHdvc3Y4mN1T/5zm7IAYU7XwRILI8vglB0lJ+lGmKpRy/od0Qa67dN689084BOuYHzy7G01+VKQhDW1SEvcPYgVgshXX8ThjbYbqSveP4gcDizPE7TCcvhlz1te66xa4qr1ydKEWNOOxRuwr53CVKO0+PKLCs8/T8CGIveiLOazzahJAsPiOxoFSZ8v/wsnrcK0z8uDYoHua4NNqBPWnahJIJ1wofxW52aZM79mxFUfF5hY/hxOZzTZxk2uDUqxsf21GmeCea71ZAj2XKQ9C9R5dtcSZKfeZkkhm9j7PjkYOP43PmpGyB0WhUyYjkCtfSJvou6HPuOM/7OUHyNldXFpUux0tjlDs2vw/iU4fR582dpC2xTDZUxdvHK86pNXf34jWlPlJ9mNYIoIj9SxLd+vKynzqFx+SO5vHoh38UYBFCRA4+dFDsRAgrX1UcaKOLJNsbbW0dqZReXbN6vy3kVJDaRjjD0fMWs6Yda3hov+JFu+4dKWVyL8jRGTrGJN4mDr6IsGU9j1AMy6QcPR2qGeVT4g9IdNMAkL4UjZ8jc+TuP4qHZygFOyuK1Gsqjh872dysuptbatoevF4INhd7WZ3OY/B7FwkcR03z677GB/ow9i4awGuO2AB+f3SZSAN5qMDIT10wVjlwlQz+qsvLaWiseIh3Rto8puj/X/9rM5DxoC8NtOtij102UDIQRWNQgXdXGToLslS3obaFUxzauKVpDhnhY4+0ZL9F8u1k8t+9fY0/O3tpskl7uTRAEwlrwskzC/GCX4oOohaZR1SHYda9yBSa8D8xZj/+pctP73m6/mk1SwVfBQOt3rR9Bg6hDiRX4wDDQZHVRrk9LPiD8qGe1p0IVx962XJH/ziz7KVHbn+s4P979boXkymrfnDnEuR5ACdfjYl9HjbXYuUfmNLZuCQP3UAVY6DVG3/eiDO9A95HBEYoXDgCO7hjStfKxkJcGQGt/nHHHCnZ1kICG9huvbGzYY6BnWMSGmh5a9dIQawTm9v3e5NpMoF2Uh1w1Bntus2pvAJ1NcLQQEecS63EvqzS+Pr4WcSqiqlkpUmg0EBxNBoFMklOa0PSKH4ooJWxTvXRbII2gU+MSROmP7k03Mc75BYKKGrqGZ8YnoBAKOlD5xEKKLqBT/lpeuhD5xEOKKPLvFCfJiGZ89kmTAqhgKICOhzG+cenK/8S1ncooG/Gbt+FCrQNQfrDBrok+hJxJWs7tHhXV1h//wWMwu8QJb+XfQAAAABJRU5ErkJggg==;fontFamily=Arial;fontColor=#000000;" parent="1" vertex="1">
          <mxGeometry x="1" y="366" width="58" height="46" as="geometry" />
        </mxCell>
        <mxCell id="oVOntPXR7E7VkJtqesnf-5" value="" style="shape=image;verticalLabelPosition=bottom;labelBackgroundColor=default;verticalAlign=top;aspect=fixed;imageAspect=0;image=data:image/png,iVBORw0KGgoAAAANSUhEUgAAADoAAAA6CAYAAADhu0ooAAAAAXNSR0IArs4c6QAAAIRlWElmTU0AKgAAAAgABQESAAMAAAABAAEAAAEaAAUAAAABAAAASgEbAAUAAAABAAAAUgEoAAMAAAABAAIAAIdpAAQAAAABAAAAWgAAAAAAAACQAAAAAQAAAJAAAAABAAOgAQADAAAAAQABAACgAgAEAAAAAQAAADqgAwAEAAAAAQAAADoAAAAAsZNKYQAAAAlwSFlzAAAWJQAAFiUBSVIk8AAABPpJREFUaAXtm99rHFUUx8+5uw0IPgRaQ/AHNGxoHgxbjfigUHzxJQ/ibqj/gLa1TQ2xMW1SpW2METfWaLC1pC4qog9CS1PxIYpGA0UQ0UJFH5pIUguKP14ivmTTnTl+7+7eZBJ3JtnJbDK77sBy79y5c+753O+ZO3PvzDIV2Rr7x3cK2/sVWe2spInYqmcWYraJ8NOp+ZHKly/t544tl+XqK1Nf/nu+sz7qrbRfpH7R9mBfyTx8mCOyJ+wopb9JfnTDicbOHZ1vODY+iJP6cFKddn654ZCDrhRiEQKkvu64cMrwKZPR6R3HPr4AshMkVOcsr8B8HZOc3HOpAzz5bQm0ofeTQXTKXnOgKlKmvXsuJ1/ULLnQbXx2Ymc2mr2uEK5UCAEuXFcVGrq4ZvPjAngWIyItOUVvRaz9IK70cHULwjqLBQNrTlZud6tVDeXM1G6u0aZqAPJgaDKg9R6VquFQvQGtBhhPhhqoZ/dU4MGaohUomqfLNUU9u6cCD9YUDYloWSI5K5iF4DGuS5h/9utX1O+J5T4P0/wFLCYkrz515lPT1gPnD3zAt9G3mHPtMmXrTUMaurxANieu7ntjCVIDff/0239D2dPrhXPWCyPoAokkrh0Y+czpqMljlvmLyZeShgoUS2ELTMoVUoNhXeChUgBN3RCBSgaLAoAcLqqkdvjB9zrvw8B01DhfShqSwUgyuPYS1w66Q7a9fyiOJdjPAXd7KYCmbhgUzYioxA8HUysGHuOgTjUkE09idXKHs7yU/MYUZf6HxP6QFf2GRh/B79FSGsc1mcFaVeKnw0OukPe/07UbgF8QWTvyS3mltLBc1z8o0x9iqYdvDuybLZgbakqdPYyeP4ObPPxfa2OEqwLkoCtkW7o7jtEHStrbNwKpPfEfuiKv3Bx40kDmqOb6n3kLvd8JpyCW55bB2wBADnhCiqIvYWi7p6V1HvQPSvRjsTZmj3eNiTdsRgmvAdkbtzkyiZtJIJDaT/+grO4tBqrLZvu6x9iWTgTwamUzQlCy+4Srkq3p3rhFCFcS3wNPMb/8g4ocv3Po3XuKGdVlM309Y+B0hDFnbJHk9TUgI4LRlfyPrm7++AclaoyK9dVdA+m73YzP9PaO4dgh6LoAaZPTR16YcKvbeu75uLIjk6gXqJKmvY2A6sexWDQqU83DHrDPHT1PvK15+ki/JyQpuyxKBgJaMBLL3rIA+6arstM9Pb+aBlenWkm8VZ5k4bIoadrbkKLGCG4nsWw26gm7VNeRaT03EBfC6LqBJx6HOc9sMKBoAs+qMdtS64bVkLYgXCXY0dWNNjDQXAOAxT10TdiWUUDahHAtz8BTDDZYULSAUTOGe6UrbMvoy3HFalPC1QkcOGjBeAxfskzFRkZW3Gd3jaR2MyFcefOUNLD+H+qNBfc0ho9avmseOf06XrPPKLLbmK1uXMyYT65+YHI3EtSRcoLqCUcDmFK4FgtfS+hJzeZD6s4qV+hq26HaaqChkiMAZ2qKBtCJoTJRUzRUcgTgzP9O0fkAOi3MJuaNonNh9jIA3+ZyoJhtuC5zBNDIlpvA1HEiB7rNiqTxBLq45R6VxwF8r8vpHOjvo+03kBkuTztbbjU1lbys+fLbn689dhILzhfNflWkQhevJMZPaZYlUL3z16uPP4Fp1EuYX1V6GC/iY4/BKx2XwJPfir71qsb/vRjgqk//BWlSJ5vXbwGzAAAAAElFTkSuQmCC;fontFamily=Arial;fontColor=#000000;" parent="1" vertex="1">
          <mxGeometry x="280" y="152" width="48" height="48" as="geometry" />
        </mxCell>
        <mxCell id="oVOntPXR7E7VkJtqesnf-6" value="" style="shape=image;verticalLabelPosition=bottom;labelBackgroundColor=default;verticalAlign=top;aspect=fixed;imageAspect=0;image=data:image/png,iVBORw0KGgoAAAANSUhEUgAAADQAAAA6CAYAAAD/cnqbAAAAAXNSR0IArs4c6QAAAIRlWElmTU0AKgAAAAgABQESAAMAAAABAAEAAAEaAAUAAAABAAAASgEbAAUAAAABAAAAUgEoAAMAAAABAAIAAIdpAAQAAAABAAAAWgAAAAAAAACQAAAAAQAAAJAAAAABAAOgAQADAAAAAQABAACgAgAEAAAAAQAAADSgAwAEAAAAAQAAADoAAAAA8Ley9wAAAAlwSFlzAAAWJQAAFiUBSVIk8AAACAZJREFUaAXtWmlslEUYnplvl2U3QIA2IGcoh1KR+6igGBT8gVgbS7lFS4iiIRAJhksTa1Arhz8EEi5RRERpgYiV+kPApIClKLGCpIhYCGBLaYFCbZey+834zOzOsrss21I5vm34mq9zfTPzPPPO8b7vDiGN7KEN5TNw7Vp7eRl92LDxREK9CZRy+bajjLelRLSkzHQSyp3IczGEhHFCBHGjvAZxN/LcKKsk1CxDWMqYOEWJ9xQXtMgmqk8cnrHO0xBs9SbUPmNLvME9IwHmKYBNAog+eO0ASACcIH7jRZ5OqzJ/WgLU+TfVC6pDqekhTBzBtwWMmHncLvYcnryuoj4EoxJqs2hLWyCeAgmMRQdD0QGVQHygTF+I9J0n5G9T98VMAannYzC3U8K+Kpj8admtyEUk1Gb+jr6M8YWMelNBxK5HNXi0MYr3jlBoXx7g2WEjInP/xM2/hxMLIdRxTlbr603sH1PCX4EkqCKiRwlTyiKE9EBKqX0hiGdu/vjsS5oY05E2b+3sU2tzFIJhOqH4s/ojJEqRzhgrHL5tbB8NVxFqNT+ns6BsL1h00gUxFHbiwP5kzrjOErMiZHjZUmypcTFEIgQqBBFHvXxpgBAio0O+iMEEZqDioNdQixjkEApZCMVBEwotjOHUA0JWF14jlZAgNVYf+XrgUxyUhASl++pRwdKfUEoUB0UItsgCoK21NOLo4GpNwiQHn6ZQvmxMITSjVKSro9ezYKkg1ULQ1J9fzC6U6AKbQvmy5FyTs0FCkHwLwo4MCVihxw06kJaVqz+IqFU/NH/beMrEQpgL/W4YdNYxHxgVhYLyzIMTNmdpIjpUEmo9KzdE9Tm/JC2rNHNcfyboMHy4Hm+5rnC/Qhg/wEDXCyGG5U/c1D+cTFLuFMVBSShu7q5TcFZMv7j8hb0RAY/LMtr3qk1inD8LSxY+BT4Y3zfXBuDdMMFhEVfB5P4FMyWPEvPHLo7Kguzx2WYkfMOz00YKQ2zYn7q9iyIUP3cXdm74Cpj5LcBlXFiSepNpG95QwuINj3BqPsaYNxEEu8LK7YLO2xECrw/jLQFIWbzBVq5sQ/UjrV/pJ6CiEmnl9UGd0xikYniDigxC/vh1+id/hvcZnh6WNRlLwsxAGymyHxDC7o0nQEiRUmtlN8Ctb1bl2nly5XMN2s67r1jhcFZXu643Y067uO6U/Xio6W5iONxub0nNydkrG9Tu6NxZjstVl1Ngfr+KQRgVGKA6CPntdvMqKu4ihjfHZGJPWcbLFySwe/0M2/R6Gy/1jqSGmQxJjAGJFopImL9DSsgWFZygLeD1mUQFm2TjXHR6d2MR5nUBbPlDIHqUcePY6YxplVHbuM3Cfp+/2RJus16GIL0xnYZgN0vyMDMR/UXckcObj04o6Gu0RmEVPgrPBF4xTY4QsXlJwgerKyB6bCr8DIMXFGEZSFdhIcMzKmqoIdzwiLplU8zgTuxSTmozXRQhM8zmgoi2qNcW33ZGOwmU83g4/wAf7Us/CP7gHpDRej31JnTL1qiIB6h4kBys+5V9Y0fAixyc1ITJOEfUlwd/JTYg1PKnFVr57R14AprCHWjLEk08IGQJMUQB0WgldCUK6Zgowkakjg+/hMT3MYE6KkgoAHh8hAxzHuL3RQuIirGehdjwL3DDKzn4CFUsTSnhjI7A4VVczzYs9BktNigbcSDlu5IAIRm5uPT5Ig+tHYDDbg1OQ3lMW/yhHJrLmmvcHJCXurVIg42oULRfuK0nzvUF0KUm4LRvKk95+UoVHeqJit+vX/CA4xoGfCu1ez7KT/v6uCaiQ7WG4ubm9NQZMizJTDt+PnNcumFnHaCfzETWXszTiMZVcL27FqfUi1HcCyIzbdzT/uCkTenhZIZuG6s4KAnBHsJP7ebbFVdKV5F1MyL+nN49Y3OLWm4+DcUTFqv6Fbw/RsslJaYk55eikmZAiqFSlYRVuV/SIfWC6kD6NdD1foPBVwDDMc8wmvxU8NLKq5EGbODa1+zO+EuzoTovhvng0oSUxQqwJyCID8sry7fcilhwo50Wr+1mN3giJ2ZXxswumJ7tANhvsUKrpqYLbcq7CvKVVaGBq/sJ6q4CwFZC4y4DiFLBzNNU8GJbE0/R4fSVfwf3EykuiTha/TsF7S+Ctt5DDk40ixUXIfhGSO3L0vcnBhZcpIbvdd7j30xNhGI+lRg8HYMjB1BJvS5CwVOjCKLPgUh3E1ZzoCRjhvIh3ysikISLuvgTcF2NwjSExQpjz0/ixgblm9p1W6w+1LAWqbQY5xHR1Nv5vc+OwhFyCI0fheF2zEvJX+feeeOfO0Gw7+o5HahN9MDs6IXZAYuVD8E07o2+YbdJe6lum+l2DTwb9n5sBrQ/SMkVTuxYzF0zV9Vi1M5B7GXw2pQJKqqwccj1UgNwsFi5G3NdwtHrSd//aY4yueZgsfKOCB3KKFQrW/6Tb90kggfzdgkF1w3E0aUDiW7ovpvsXoIKwJEZOBx0WocqQ7YgM+SjQ1+qwf/9ymmD61uuYqMlFPHQstzwRwNEqeKgJfRDtG9joQw7oeKgCJk2Pg+L8mIsAI+EEfvORWFjN+yhy0uSz0DteAYFZyNVsHjeWQbs+5Ozz0icesqRC8tTjji8tf1AaiO2frnZWvvBHIN7dSPnvN++tO1HNNiIu3+judGoWeqw0dw51YSCw0ZxKziYUHg8+N62CNhDN93bdkFHc4bd25Z6Xc1N97YNAnvIU/x/723/B7l6kd7VnrImAAAAAElFTkSuQmCC;fontFamily=Arial;fontColor=#000000;" parent="1" vertex="1">
          <mxGeometry x="370" y="150.5" width="43.48" height="48.5" as="geometry" />
        </mxCell>
      </root>
    </mxGraphModel>
  </diagram>
</mxfile>
